<svg width="23" height="24" viewBox="0 0 23 24" fill="none" xmlns="http://www.w3.org/2000/svg">
<path fill-rule="evenodd" clip-rule="evenodd" d="M1.73661 12.9167C2.1636 12.9167 2.50308 12.5601 2.50041 12.1331C2.50014 12.0889 2.5 12.0446 2.5 12C2.5 8.54897 3.32779 6.23893 4.7184 4.78786C6.09759 3.3487 8.27564 2.5 11.5417 2.5C14.8077 2.5 16.9857 3.3487 18.3649 4.78786C19.0823 5.53641 19.6499 6.51354 20.0313 7.75798C20.134 8.09294 20.436 8.33333 20.7863 8.33333C21.271 8.33333 21.6337 7.88498 21.4961 7.42026C20.2289 3.14009 16.9107 1 11.5417 1C4.51389 1 1 4.66667 1 12C1 12.0668 1.00029 12.1333 1.00087 12.1994C1.00441 12.6005 1.3355 12.9167 1.73661 12.9167ZM3.05201 16.242C2.94934 15.9071 2.64738 15.6667 2.29704 15.6667C1.81238 15.6667 1.44966 16.115 1.58725 16.5797C2.85447 20.8599 6.17261 23 11.5417 23C18.5694 23 22.0833 19.3333 22.0833 12C22.0833 11.9332 22.083 11.8667 22.0825 11.8006C22.0789 11.3995 21.7478 11.0833 21.3467 11.0833C20.9197 11.0833 20.5803 11.4399 20.5829 11.8669C20.5832 11.9111 20.5833 11.9554 20.5833 12C20.5833 15.451 19.7555 17.7611 18.3649 19.2121C16.9857 20.6513 14.8077 21.5 11.5417 21.5C8.27564 21.5 6.09759 20.6513 4.7184 19.2121C4.00104 18.4636 3.43345 17.4865 3.05201 16.242Z" fill="#282828"/>
<path d="M21.1667 1.91669V7.41669H15.6667" stroke="#282828" stroke-width="1.5" stroke-linecap="round" stroke-linejoin="round"/>
<path d="M1.91669 22.0833L1.91669 16.5833L7.41669 16.5833" stroke="#282828" stroke-width="1.5" stroke-linecap="round" stroke-linejoin="round"/>
</svg>
