<svg width="24" height="24" viewBox="0 0 24 24" fill="none" xmlns="http://www.w3.org/2000/svg">
<path d="M15.9999 5.5385L11.9999 1.84619M11.9999 1.84619L7.99988 5.5385M11.9999 1.84619L11.9999 12.1847" stroke="#282828" stroke-width="1.5" stroke-linecap="round" stroke-linejoin="round"/>
<path fill-rule="evenodd" clip-rule="evenodd" d="M5.58322 8.46604C5.58322 7.97957 5.13157 7.61385 4.66803 7.76145C1.78183 8.68044 1 10.6587 1 14.6041C1 20.8213 2.9415 22.1538 12 22.1538C21.0585 22.1538 23 20.8213 23 14.6041C23 10.6586 22.2181 8.68033 19.3317 7.76137C18.8682 7.61379 18.4166 7.97951 18.4166 8.46597C18.4166 8.81539 18.6558 9.11502 18.9868 9.22681C19.4314 9.37693 19.7764 9.54797 20.0481 9.73446C20.9921 10.3824 21.5 11.5411 21.5 14.6041C21.5 17.667 20.9921 18.8258 20.0481 19.4737C19.5028 19.8479 18.6625 20.1599 17.3141 20.3656C15.9717 20.5704 14.2418 20.6538 12 20.6538C9.75815 20.6538 8.02831 20.5704 6.68588 20.3656C5.33745 20.1599 4.49717 19.8479 3.95188 19.4737C3.0079 18.8258 2.5 17.667 2.5 14.6041C2.5 11.5411 3.0079 10.3824 3.95188 9.73446C4.22356 9.548 4.56846 9.37699 5.01294 9.22688C5.34399 9.11508 5.58322 8.81546 5.58322 8.46604Z" fill="#282828"/>
</svg>
