<svg width="24" height="24" viewBox="0 0 24 24" fill="none" xmlns="http://www.w3.org/2000/svg">
<path d="M11.6706 15.8272C11.7073 15.8805 11.7564 15.9241 11.8137 15.9542C11.871 15.9843 11.9347 16 11.9995 16C12.0642 16 12.1279 15.9843 12.1852 15.9542C12.2425 15.9241 12.2916 15.8805 12.3283 15.8272L15.9286 10.6276C15.9702 10.5676 15.9947 10.4973 15.9992 10.4245C16.0038 10.3516 15.9883 10.2788 15.9544 10.2141C15.9205 10.1495 15.8695 10.0953 15.807 10.0575C15.7444 10.0198 15.6728 9.99989 15.5997 10H8.39918C8.32631 10.0003 8.2549 10.0205 8.19263 10.0583C8.13036 10.0961 8.07959 10.1502 8.04578 10.2148C8.01196 10.2793 7.99638 10.3519 8.00071 10.4246C8.00504 10.4973 8.02912 10.5675 8.07035 10.6276L11.6706 15.8272Z" fill="#494B67"/>
</svg>
