<svg width="24" height="24" viewBox="0 0 24 24" fill="none" xmlns="http://www.w3.org/2000/svg">
<path fill-rule="evenodd" clip-rule="evenodd" d="M12 24C5.37258 24 0 18.6274 0 12C0 5.37258 5.37258 0 12 0C18.6274 0 24 5.37258 24 12C24 18.6274 18.6274 24 12 24ZM13.1932 12L16.7769 8.41639C17.2162 7.97705 17.0196 7.47363 16.773 7.22703C16.5264 6.98043 16.0229 6.78381 15.5836 7.22315L12 10.8068L8.42027 7.22703C7.95869 6.76545 7.47751 6.97655 7.22703 7.22703C6.97655 7.47751 6.71958 7.91283 7.22703 8.42027L10.8068 12L7.23091 15.5758C6.79157 16.0152 6.98043 16.5264 7.22703 16.773C7.47363 17.0196 7.98481 17.2084 8.42415 16.7691L12 13.1932L15.5797 16.773C16.0172 17.2105 16.5302 17.0157 16.7769 16.7691C17.0235 16.5225 17.2105 16.0172 16.773 15.5797L13.1932 12Z" fill="#CBCBCB"/>
</svg>
